<?xml version="1.0" encoding="iso-8859-1"?>
<!-- Uploaded to: SVG Repo, www.svgrepo.com, Generator: SVG Repo Mixer Tools -->
<svg version="1.1" id="Layer_1" xmlns="http://www.w3.org/2000/svg" xmlns:xlink="http://www.w3.org/1999/xlink" 
	 viewBox="0 0 496.2 496.2" xml:space="preserve">
<path style="fill:#FFBB00;" d="M0,248.1C0,111.1,111.1,0,248.1,0s248.1,111.1,248.1,248.1S385.1,496.2,248.1,496.2S0,385.1,0,248.1z
	"/>
<g style="opacity:0.19;">
	<path d="M162.9,112.5c-8.6,0-15.5,6.9-15.5,15.5v248c0,8.6,6.9,15.5,15.5,15.5h178.2c8.6,0,15.5-6.9,15.5-15.5V184.3l-74.7-71.8
		C281.9,112.5,162.9,112.5,162.9,112.5z"/>
	<path d="M356.6,184.3h-59.2c-8.6,0-15.5-6.9-15.5-15.5v-56.3L356.6,184.3z"/>
</g>
<path style="fill:#F5F5F5;" d="M159,108.6c-8.6,0-15.5,6.9-15.5,15.5v248c0,8.6,6.9,15.5,15.5,15.5h178.2c8.6,0,15.5-6.9,15.5-15.5
	V180.4L278,108.6H159z"/>
<path style="fill:#E1E1E1;" d="M352.7,180.4h-59.2c-8.6,0-15.5-6.9-15.5-15.5v-56.3L352.7,180.4z"/>
<rect x="187.4" y="148.6" style="fill:#007883;" width="31.4" height="78.6"/>
<rect x="183.4" y="148.6" style="fill:#0E5066;" width="3.9" height="78.6"/>
<rect x="222.7" y="172.1" style="fill:#127899;" width="7.9" height="55"/>
<rect x="230.6" y="172.1" style="fill:#00ADBB;" width="23.6" height="55"/>
<rect x="258.1" y="187.8" style="fill:#1A8BB3;" width="7.9" height="39.3"/>
<rect x="265.9" y="187.8" style="fill:#0FBCD3;" width="19.6" height="39.3"/>
<polygon style="fill:#95C7C3;" points="292,211.4 297.4,211.4 297.4,227.1 289.5,227.1 289.5,211.4 290.6,211.4 "/>
<polygon style="fill:#A2D8D4;" points="315.2,211.4 317,211.4 317,227.1 297.4,227.1 297.4,211.4 "/>
<g>
	<rect x="159.9" y="246.8" style="fill:#E6E6E6;" width="62.9" height="7.9"/>
	<rect x="159.9" y="266.4" style="fill:#E6E6E6;" width="82.5" height="11.8"/>
	<rect x="159.9" y="286.1" style="fill:#E6E6E6;" width="82.5" height="11.8"/>
	<rect x="159.9" y="309.6" style="fill:#E6E6E6;" width="62.9" height="11.8"/>
	<rect x="159.9" y="329.3" style="fill:#E6E6E6;" width="82.5" height="11.8"/>
	<rect x="159.9" y="352.9" style="fill:#E6E6E6;" width="82.5" height="7.9"/>
	<rect x="254.1" y="246.8" style="fill:#E6E6E6;" width="62.9" height="7.9"/>
	<rect x="254.1" y="266.4" style="fill:#E6E6E6;" width="82.5" height="11.8"/>
	<rect x="254.1" y="286.1" style="fill:#E6E6E6;" width="82.5" height="11.8"/>
	<rect x="254.1" y="309.6" style="fill:#E6E6E6;" width="62.9" height="11.8"/>
	<rect x="254.1" y="329.3" style="fill:#E6E6E6;" width="82.5" height="11.8"/>
	<rect x="254.1" y="352.9" style="fill:#E6E6E6;" width="82.5" height="7.9"/>
</g>
</svg>