<?xml version="1.0" encoding="iso-8859-1"?>
<!-- Uploaded to: SVG Repo, www.svgrepo.com, Generator: SVG Repo Mixer Tools -->
<svg height="800px" width="800px" version="1.1" id="Layer_1" xmlns="http://www.w3.org/2000/svg" xmlns:xlink="http://www.w3.org/1999/xlink" 
	 viewBox="0 0 512.001 512.001" xml:space="preserve">
<path style="fill:#FFD630;" d="M256.001,0.001c141.403,0,256.001,114.598,256.001,256s-114.599,256-256.001,256S0,397.403,0,256.001
	S114.598,0.001,256.001,0.001z"/>
<path style="fill:#F5BE18;" d="M510.753,230.131l-82.078-82.078l-126.961,91.636l-91.429-91.636L95.791,300.572l32.935,32.935
	l-45.402,28.052l149.402,149.402c7.688,0.728,15.377,1.039,23.273,1.039C397.402,512,512,397.403,512,256
	C512,247.273,511.585,238.65,510.753,230.131z"/>
<path style="fill:#E84F4F;" d="M210.389,361.559c0,6.754-28.467,12.26-63.481,12.26s-63.481-5.507-63.481-12.26V148.053h126.961
	L210.389,361.559L210.389,361.559z"/>
<path style="fill:#C94545;" d="M210.389,361.559c0,6.754-28.467,12.26-63.481,12.26V148.053h63.481V361.559z"/>
<path style="fill:#F7F7F8;" d="M146.909,138.287c35.013,0,63.481,4.364,63.481,9.87c0,5.402-28.467,9.87-63.481,9.87
	s-63.481-4.364-63.481-9.87C83.428,142.753,111.897,138.287,146.909,138.287z"/>
<path style="fill:#993232;" d="M83.428,334.234V328c16.52,5.611,38.857,9.039,63.481,9.039s46.961-3.429,63.481-9.039v6.234
	c-16.935,5.507-39.169,8.727-63.481,8.727S100.364,339.636,83.428,334.234z M83.428,179.117v-6.234
	c16.52,5.611,38.857,9.039,63.481,9.039s46.961-3.429,63.481-9.039v6.234c-16.935,5.507-39.169,8.727-63.481,8.727
	S100.364,184.521,83.428,179.117z M83.428,210.183v-6.234c16.52,5.611,38.857,9.039,63.481,9.039s46.961-3.429,63.481-9.039v6.234
	c-16.935,5.507-39.169,8.727-63.481,8.727S100.364,215.585,83.428,210.183z M83.428,241.247v-6.234
	c16.52,5.611,38.857,9.039,63.481,9.039s46.961-3.429,63.481-9.039v6.234c-16.935,5.507-39.169,8.727-63.481,8.727
	S100.364,246.65,83.428,241.247z M83.428,272.312v-6.234c16.52,5.611,38.857,9.039,63.481,9.039s46.961-3.429,63.481-9.039v6.234
	c-16.935,5.507-39.169,8.727-63.481,8.727S100.364,277.715,83.428,272.312z M83.428,303.377v-6.233
	c16.52,5.611,38.857,9.039,63.481,9.039s46.961-3.429,63.481-9.039v6.234c-16.935,5.507-39.169,8.727-63.481,8.727
	S100.364,308.78,83.428,303.377z"/>
<path style="fill:#782323;" d="M146.909,337.143c24.623,0,46.961-3.429,63.481-9.039v6.234c-16.935,5.507-39.169,8.727-63.481,8.727
	V337.143z M146.909,312.001v-5.922c24.623,0,46.961-3.429,63.481-9.039v6.234C193.454,308.78,171.221,312.001,146.909,312.001z
	 M146.909,280.935v-5.922c24.623,0,46.961-3.429,63.481-9.039v6.234C193.454,277.715,171.221,280.935,146.909,280.935z
	 M146.909,249.871v-5.922c24.623,0,46.961-3.429,63.481-9.039v6.234C193.454,246.65,171.221,249.871,146.909,249.871z
	 M146.909,218.806v-5.922c24.623,0,46.961-3.429,63.481-9.039v6.234C193.454,215.585,171.221,218.806,146.909,218.806z
	 M146.909,187.741v-5.922c24.623,0,46.961-3.429,63.481-9.039v6.234C193.454,184.521,171.221,187.741,146.909,187.741z"/>
<path style="fill:#E84F4F;" d="M428.676,361.559c0,6.754-28.467,12.26-63.481,12.26s-63.481-5.507-63.481-12.26V148.053h126.961
	v213.507H428.676z"/>
<path style="fill:#C94545;" d="M428.676,361.559c0,6.754-28.467,12.26-63.481,12.26V148.053h63.481V361.559z"/>
<path style="fill:#F7F7F8;" d="M365.195,138.287c35.013,0,63.481,4.364,63.481,9.87c0,5.402-28.467,9.87-63.481,9.87
	s-63.481-4.364-63.481-9.87C301.714,142.753,330.182,138.287,365.195,138.287z"/>
<path style="fill:#993232;" d="M301.714,334.234V328c16.52,5.611,38.857,9.039,63.481,9.039c24.623,0,46.961-3.429,63.481-9.039
	v6.234c-16.935,5.507-39.169,8.727-63.481,8.727C340.883,342.961,318.65,339.636,301.714,334.234z M301.714,179.117v-6.234
	c16.52,5.611,38.857,9.039,63.481,9.039c24.623,0,46.961-3.429,63.481-9.039v6.234c-16.935,5.507-39.169,8.727-63.481,8.727
	C340.883,187.844,318.65,184.521,301.714,179.117z M301.714,210.183v-6.234c16.52,5.611,38.857,9.039,63.481,9.039
	c24.623,0,46.961-3.429,63.481-9.039v6.234c-16.935,5.507-39.169,8.727-63.481,8.727C340.883,218.91,318.65,215.585,301.714,210.183
	z M301.714,241.247v-6.234c16.52,5.611,38.857,9.039,63.481,9.039c24.623,0,46.961-3.429,63.481-9.039v6.234
	c-16.935,5.507-39.169,8.727-63.481,8.727C340.883,249.975,318.65,246.65,301.714,241.247z M301.714,272.312v-6.234
	c16.52,5.611,38.857,9.039,63.481,9.039c24.623,0,46.961-3.429,63.481-9.039v6.234c-16.935,5.507-39.169,8.727-63.481,8.727
	C340.883,281.039,318.65,277.715,301.714,272.312z M301.714,303.377v-6.233c16.52,5.611,38.857,9.039,63.481,9.039
	c24.623,0,46.961-3.429,63.481-9.039v6.234c-16.935,5.507-39.169,8.727-63.481,8.727C340.883,312.105,318.65,308.78,301.714,303.377
	z"/>
<path style="fill:#782323;" d="M365.195,337.143c24.623,0,46.961-3.429,63.481-9.039v6.234c-16.935,5.507-39.169,8.727-63.481,8.727
	V337.143z M365.195,312.001v-5.922c24.623,0,46.961-3.429,63.481-9.039v6.234C411.74,308.78,389.507,312.001,365.195,312.001z
	 M365.195,280.935v-5.922c24.623,0,46.961-3.429,63.481-9.039v6.234C411.74,277.715,389.507,280.935,365.195,280.935z
	 M365.195,249.871v-5.922c24.623,0,46.961-3.429,63.481-9.039v6.234C411.74,246.65,389.507,249.871,365.195,249.871z
	 M365.195,218.806v-5.922c24.623,0,46.961-3.429,63.481-9.039v6.234C411.74,215.585,389.507,218.806,365.195,218.806z
	 M365.195,187.741v-5.922c24.623,0,46.961-3.429,63.481-9.039v6.234C411.74,184.521,389.507,187.741,365.195,187.741z"/>
<g>
	<path style="fill:#FFFFFF;" d="M273.351,173.195l15.792,26.286c1.039,1.454,1.143,3.533,0.208,5.195l0,0l0,0v0.104l-15.896,26.494
		c-1.351,2.286-4.364,3.013-6.649,1.662l0,0c-2.286-1.351-3.013-4.364-1.662-6.649l11.637-19.221h-49.663
		c-2.701,0-4.883-2.182-4.883-4.883l0,0c0-2.701,2.182-4.883,4.883-4.883h49.663l-11.637-19.221
		c-1.351-2.286-0.624-5.298,1.662-6.649l0,0c2.286-1.351,5.298-0.624,6.649,1.662L273.351,173.195z"/>
	<path style="fill:#FFFFFF;" d="M238.753,338.806l-15.792-26.286c-1.039-1.454-1.143-3.533-0.208-5.195l0,0l0,0v-0.104
		l15.896-26.494c1.351-2.286,4.364-3.013,6.649-1.662l0,0c2.286,1.351,3.013,4.364,1.662,6.649l-11.637,19.221h49.663
		c2.701,0,4.883,2.182,4.883,4.883l0,0c0,2.701-2.182,4.883-4.883,4.883h-49.663l11.637,19.221c1.351,2.286,0.624,5.298-1.662,6.649
		l0,0c-2.286,1.351-5.298,0.624-6.649-1.662L238.753,338.806z"/>
</g>
</svg>